<svg xmlns="http://www.w3.org/2000/svg" viewBox="0 0 1200 800" preserveAspectRatio="xMidYMid slice">
<defs><linearGradient id="sky17" x1="0" y1="0" x2="0" y2="1">
      <stop offset="0" stop-color="#a8d8b9"/><stop offset="1" stop-color="#e2f2e5"/>
    </linearGradient><linearGradient id="wat17" x1="0" y1="0" x2="0" y2="1">
      <stop offset="0" stop-color="#2e8b57"/><stop offset="1" stop-color="#20714a"/>
    </linearGradient><radialGradient id="sunG">
      <stop offset="0" stop-color="#F2B705" stop-opacity="0.95"/>
      <stop offset="0.55" stop-color="#F2B705" stop-opacity="0.35"/>
      <stop offset="1" stop-color="#F2B705" stop-opacity="0"/>
    </radialGradient></defs>
<rect width="1200" height="800" fill="url(#sky17)"/>
<polygon points="0,453 160,323 320,433 500,303 680,423 860,313 1020,433 1200,363 1200,463 0,463" fill="#2c5f4a" opacity="0.9"/><rect x="0" y="463" width="1200" height="337" fill="url(#wat17)"/><path d="M79.71428571428571 473 L57.83928571428571 473 L79.71428571428571 348 L101.58928571428571 473 Z" fill="#43a06a" opacity="0.9"/><rect x="77.71428571428571" y="467" width="4" height="14" fill="#5a4632" opacity="0.6"/><path d="M256.14285714285717 473 L232.34285714285716 473 L256.14285714285717 337 L279.9428571428572 473 Z" fill="#43a06a" opacity="0.9"/><rect x="254.14285714285717" y="467" width="4" height="14" fill="#5a4632" opacity="0.6"/><path d="M408.57142857142856 473 L384.59642857142853 473 L408.57142857142856 336 L432.5464285714286 473 Z" fill="#43a06a" opacity="0.9"/><rect x="406.57142857142856" y="467" width="4" height="14" fill="#5a4632" opacity="0.6"/><path d="M592.0 473 L571.7 473 L592.0 357 L612.3 473 Z" fill="#43a06a" opacity="0.9"/><rect x="590.0" y="467" width="4" height="14" fill="#5a4632" opacity="0.6"/><path d="M783.4285714285714 473 L761.7285714285714 473 L783.4285714285714 349 L805.1285714285715 473 Z" fill="#43a06a" opacity="0.9"/><rect x="781.4285714285714" y="467" width="4" height="14" fill="#5a4632" opacity="0.6"/><path d="M956.8571428571429 473 L939.5321428571428 473 L956.8571428571429 374 L974.1821428571429 473 Z" fill="#43a06a" opacity="0.9"/><rect x="954.8571428571429" y="467" width="4" height="14" fill="#5a4632" opacity="0.6"/><path d="M1122.2857142857142 473 L1102.8607142857143 473 L1122.2857142857142 362 L1141.7107142857142 473 Z" fill="#43a06a" opacity="0.9"/><rect x="1120.2857142857142" y="467" width="4" height="14" fill="#5a4632" opacity="0.6"/><path d="M124.0 553 L92.2375 553 L124.0 371.5 L155.7625 553 Z" fill="#2e8b57" opacity="0.9"/><rect x="122.0" y="547" width="4" height="14" fill="#5a4632" opacity="0.6"/><path d="M340.0 553 L300.8875 553 L340.0 329.5 L379.1125 553 Z" fill="#2e8b57" opacity="0.9"/><rect x="338.0" y="547" width="4" height="14" fill="#5a4632" opacity="0.6"/><path d="M594.0 553 L561.45 553 L594.0 367.0 L626.55 553 Z" fill="#2e8b57" opacity="0.9"/><rect x="592.0" y="547" width="4" height="14" fill="#5a4632" opacity="0.6"/><path d="M869.0 553 L838.025 553 L869.0 376.0 L899.975 553 Z" fill="#2e8b57" opacity="0.9"/><rect x="867.0" y="547" width="4" height="14" fill="#5a4632" opacity="0.6"/><path d="M1093.0 553 L1058.6125 553 L1093.0 356.5 L1127.3875 553 Z" fill="#2e8b57" opacity="0.9"/><rect x="1091.0" y="547" width="4" height="14" fill="#5a4632" opacity="0.6"/><circle cx="864" cy="240" r="143.0" fill="url(#sunG)"/><circle cx="864" cy="240" r="55" fill="#F2B705"/>
</svg>