<svg xmlns="http://www.w3.org/2000/svg" viewBox="0 0 1200 800" preserveAspectRatio="xMidYMid slice">
<defs><linearGradient id="sky5" x1="0" y1="0" x2="0" y2="1">
      <stop offset="0" stop-color="#7ec8a9"/><stop offset="1" stop-color="#cfe8d8"/>
    </linearGradient><linearGradient id="wat5" x1="0" y1="0" x2="0" y2="1">
      <stop offset="0" stop-color="#1e5e3e"/><stop offset="1" stop-color="#174a30"/>
    </linearGradient><radialGradient id="sunG">
      <stop offset="0" stop-color="#F5C242" stop-opacity="0.95"/>
      <stop offset="0.55" stop-color="#F5C242" stop-opacity="0.35"/>
      <stop offset="1" stop-color="#F5C242" stop-opacity="0"/>
    </radialGradient></defs>
<rect width="1200" height="800" fill="url(#sky5)"/>
<polygon points="0,453 160,323 320,433 500,303 680,423 860,313 1020,433 1200,363 1200,463 0,463" fill="#2c5f4a" opacity="0.9"/><rect x="0" y="463" width="1200" height="337" fill="url(#wat5)"/><path d="M95.71428571428571 473 L77.5142857142857 473 L95.71428571428571 369 L113.91428571428571 473 Z" fill="#3a7d5c" opacity="0.9"/><rect x="93.71428571428571" y="467" width="4" height="14" fill="#5a4632" opacity="0.6"/><path d="M228.14285714285717 473 L206.26785714285717 473 L228.14285714285717 348 L250.01785714285717 473 Z" fill="#3a7d5c" opacity="0.9"/><rect x="226.14285714285717" y="467" width="4" height="14" fill="#5a4632" opacity="0.6"/><path d="M413.57142857142856 473 L392.9214285714286 473 L413.57142857142856 355 L434.22142857142853 473 Z" fill="#3a7d5c" opacity="0.9"/><rect x="411.57142857142856" y="467" width="4" height="14" fill="#5a4632" opacity="0.6"/><path d="M578.0 473 L559.975 473 L578.0 370 L596.025 473 Z" fill="#3a7d5c" opacity="0.9"/><rect x="576.0" y="467" width="4" height="14" fill="#5a4632" opacity="0.6"/><path d="M784.4285714285714 473 L756.6035714285714 473 L784.4285714285714 314 L812.2535714285715 473 Z" fill="#3a7d5c" opacity="0.9"/><rect x="782.4285714285714" y="467" width="4" height="14" fill="#5a4632" opacity="0.6"/><path d="M917.8571428571429 473 L892.6571428571428 473 L917.8571428571429 329 L943.0571428571429 473 Z" fill="#3a7d5c" opacity="0.9"/><rect x="915.8571428571429" y="467" width="4" height="14" fill="#5a4632" opacity="0.6"/><path d="M1086.2857142857142 473 L1070.0107142857141 473 L1086.2857142857142 380 L1102.5607142857143 473 Z" fill="#3a7d5c" opacity="0.9"/><rect x="1084.2857142857142" y="467" width="4" height="14" fill="#5a4632" opacity="0.6"/><path d="M95.0 553 L64.2875 553 L95.0 377.5 L125.7125 553 Z" fill="#1e5e3e" opacity="0.9"/><rect x="93.0" y="547" width="4" height="14" fill="#5a4632" opacity="0.6"/><path d="M344.0 553 L303.575 553 L344.0 322.0 L384.425 553 Z" fill="#1e5e3e" opacity="0.9"/><rect x="342.0" y="547" width="4" height="14" fill="#5a4632" opacity="0.6"/><path d="M608.0 553 L583.5875 553 L608.0 413.5 L632.4125 553 Z" fill="#1e5e3e" opacity="0.9"/><rect x="606.0" y="547" width="4" height="14" fill="#5a4632" opacity="0.6"/><path d="M845.0 553 L814.8125 553 L845.0 380.5 L875.1875 553 Z" fill="#1e5e3e" opacity="0.9"/><rect x="843.0" y="547" width="4" height="14" fill="#5a4632" opacity="0.6"/><path d="M1095.0 553 L1053.2625 553 L1095.0 314.5 L1136.7375 553 Z" fill="#1e5e3e" opacity="0.9"/><rect x="1093.0" y="547" width="4" height="14" fill="#5a4632" opacity="0.6"/><circle cx="864" cy="240" r="143.0" fill="url(#sunG)"/><circle cx="864" cy="240" r="55" fill="#F5C242"/>
</svg>