<svg xmlns="http://www.w3.org/2000/svg" viewBox="0 0 1200 800" preserveAspectRatio="xMidYMid slice">
<defs><linearGradient id="sky13" x1="0" y1="0" x2="0" y2="1">
      <stop offset="0" stop-color="#bfe3c9"/><stop offset="1" stop-color="#eef7ec"/>
    </linearGradient><linearGradient id="wat13" x1="0" y1="0" x2="0" y2="1">
      <stop offset="0" stop-color="#2e8b57"/><stop offset="1" stop-color="#227049"/>
    </linearGradient><radialGradient id="sunG">
      <stop offset="0" stop-color="#F2B705" stop-opacity="0.95"/>
      <stop offset="0.55" stop-color="#F2B705" stop-opacity="0.35"/>
      <stop offset="1" stop-color="#F2B705" stop-opacity="0"/>
    </radialGradient></defs>
<rect width="1200" height="800" fill="url(#sky13)"/>
<polygon points="0,453 160,323 320,433 500,303 680,423 860,313 1020,433 1200,363 1200,463 0,463" fill="#3a7d5c" opacity="0.9"/><rect x="0" y="463" width="1200" height="337" fill="url(#wat13)"/><path d="M106.71428571428571 473 L90.08928571428571 473 L106.71428571428571 378 L123.33928571428571 473 Z" fill="#54b378" opacity="0.9"/><rect x="104.71428571428571" y="467" width="4" height="14" fill="#5a4632" opacity="0.6"/><path d="M273.14285714285717 473 L247.24285714285716 473 L273.14285714285717 325 L299.04285714285714 473 Z" fill="#54b378" opacity="0.9"/><rect x="271.14285714285717" y="467" width="4" height="14" fill="#5a4632" opacity="0.6"/><path d="M432.57142857142856 473 L414.19642857142856 473 L432.57142857142856 368 L450.94642857142856 473 Z" fill="#54b378" opacity="0.9"/><rect x="430.57142857142856" y="467" width="4" height="14" fill="#5a4632" opacity="0.6"/><path d="M629.0 473 L604.85 473 L629.0 335 L653.15 473 Z" fill="#54b378" opacity="0.9"/><rect x="627.0" y="467" width="4" height="14" fill="#5a4632" opacity="0.6"/><path d="M746.4285714285714 473 L718.4285714285714 473 L746.4285714285714 313 L774.4285714285714 473 Z" fill="#54b378" opacity="0.9"/><rect x="744.4285714285714" y="467" width="4" height="14" fill="#5a4632" opacity="0.6"/><path d="M930.8571428571429 473 L907.0571428571429 473 L930.8571428571429 337 L954.6571428571428 473 Z" fill="#54b378" opacity="0.9"/><rect x="928.8571428571429" y="467" width="4" height="14" fill="#5a4632" opacity="0.6"/><path d="M1120.2857142857142 473 L1100.3357142857142 473 L1120.2857142857142 359 L1140.2357142857143 473 Z" fill="#54b378" opacity="0.9"/><rect x="1118.2857142857142" y="467" width="4" height="14" fill="#5a4632" opacity="0.6"/><path d="M135.0 553 L109.275 553 L135.0 406.0 L160.725 553 Z" fill="#2e8b57" opacity="0.9"/><rect x="133.0" y="547" width="4" height="14" fill="#5a4632" opacity="0.6"/><path d="M332.0 553 L300.7625 553 L332.0 374.5 L363.2375 553 Z" fill="#2e8b57" opacity="0.9"/><rect x="330.0" y="547" width="4" height="14" fill="#5a4632" opacity="0.6"/><path d="M619.0 553 L585.6625 553 L619.0 362.5 L652.3375 553 Z" fill="#2e8b57" opacity="0.9"/><rect x="617.0" y="547" width="4" height="14" fill="#5a4632" opacity="0.6"/><path d="M815.0 553 L783.7625 553 L815.0 374.5 L846.2375 553 Z" fill="#2e8b57" opacity="0.9"/><rect x="813.0" y="547" width="4" height="14" fill="#5a4632" opacity="0.6"/><path d="M1105.0 553 L1078.225 553 L1105.0 400.0 L1131.775 553 Z" fill="#2e8b57" opacity="0.9"/><rect x="1103.0" y="547" width="4" height="14" fill="#5a4632" opacity="0.6"/><circle cx="864" cy="240" r="143.0" fill="url(#sunG)"/><circle cx="864" cy="240" r="55" fill="#F2B705"/>
</svg>