<svg xmlns="http://www.w3.org/2000/svg" viewBox="0 0 1200 800" preserveAspectRatio="xMidYMid slice">
<defs><linearGradient id="sky15" x1="0" y1="0" x2="0" y2="1">
      <stop offset="0" stop-color="#e8c98a"/><stop offset="1" stop-color="#f4e3b8"/>
    </linearGradient><linearGradient id="wat15" x1="0" y1="0" x2="0" y2="1">
      <stop offset="0" stop-color="#e0cd9a"/><stop offset="1" stop-color="#d3bd85"/>
    </linearGradient><radialGradient id="sunG">
      <stop offset="0" stop-color="#F2B705" stop-opacity="0.95"/>
      <stop offset="0.55" stop-color="#F2B705" stop-opacity="0.35"/>
      <stop offset="1" stop-color="#F2B705" stop-opacity="0"/>
    </radialGradient></defs>
<rect width="1200" height="800" fill="url(#sky15)"/>
<polygon points="0,433 140,293 280,413 430,273 580,423 720,283 880,403 1020,303 1200,413 1200,800 0,800" fill="#8a6a3f" opacity="0.9"/><path d="M0 543 Q 240.0 443 540.0 503 T 1200 473 L1200 800 L0 800 Z" fill="#b5925c"/><path d="M0 663 Q 240.0 563 540.0 623 T 1200 593 L1200 800 L0 800 Z" fill="#e0cd9a"/><circle cx="864" cy="240" r="143.0" fill="url(#sunG)"/><circle cx="864" cy="240" r="55" fill="#F2B705"/>
</svg>